<?xml version="1.0" encoding="UTF-8"?>
<svg xmlns="http://www.w3.org/2000/svg" xmlns:xlink="http://www.w3.org/1999/xlink" width="32px" height="32px" viewBox="0 0 32 32" version="1.1">
<defs>
<clipPath id="clip1">
  <path d="M 4 7 L 32 7 L 32 32 L 4 32 Z M 4 7 "/>
</clipPath>
<clipPath id="clip2">
  <path d="M 16 0 C 24.835938 0 32 7.164062 32 16 C 32 24.835938 24.835938 32 16 32 C 7.164062 32 0 24.835938 0 16 C 0 7.164062 7.164062 0 16 0 Z M 16 0 "/>
</clipPath>
</defs>
<g id="surface1">
<path style=" stroke:none;fill-rule:evenodd;fill:rgb(100%,59.607846%,0%);fill-opacity:1;" d="M 16 0 C 24.835938 0 32 7.164062 32 16 C 32 24.835938 24.835938 32 16 32 C 7.164062 32 0 24.835938 0 16 C 0 7.164062 7.164062 0 16 0 Z M 16 0 "/>
<g clip-path="url(#clip1)" clip-rule="nonzero">
<g clip-path="url(#clip2)" clip-rule="evenodd">
<path style=" stroke:none;fill-rule:evenodd;fill:rgb(96.078432%,48.627451%,0%);fill-opacity:1;" d="M 37.1875 26.023438 L 37.226562 26.058594 L 37.472656 26.292969 L 37.550781 26.375 L 37.625 26.457031 L 37.671875 26.511719 L 43.140625 31.980469 L 43.0625 31.898438 L 43.0625 31.902344 L 43.164062 32.003906 L 43.183594 32.027344 L 43.207031 32.050781 L 43.226562 32.074219 L 43.25 32.101562 L 43.269531 32.125 L 43.289062 32.152344 L 43.308594 32.175781 L 43.324219 32.203125 L 43.34375 32.230469 L 43.359375 32.257812 L 43.378906 32.285156 L 43.410156 32.339844 L 43.425781 32.371094 L 43.457031 32.425781 L 43.46875 32.457031 L 43.484375 32.484375 L 43.507812 32.546875 L 43.519531 32.574219 L 43.566406 32.699219 L 43.574219 32.730469 L 43.585938 32.761719 L 43.609375 32.855469 L 43.617188 32.890625 L 43.628906 32.925781 L 43.644531 32.996094 L 43.65625 33.03125 L 43.664062 33.066406 L 43.667969 33.101562 L 43.675781 33.140625 L 43.679688 33.175781 L 43.6875 33.214844 L 43.691406 33.25 L 43.695312 33.289062 L 43.699219 33.324219 L 43.699219 33.363281 L 43.703125 33.402344 L 43.703125 33.476562 L 43.699219 33.488281 L 43.699219 33.597656 L 43.695312 33.621094 L 43.695312 33.675781 L 43.691406 33.699219 L 43.6875 33.726562 L 43.6875 33.753906 L 43.683594 33.777344 L 43.675781 33.832031 L 43.671875 33.855469 L 43.667969 33.882812 L 43.664062 33.90625 L 43.65625 33.960938 L 43.652344 33.984375 L 43.652344 34.011719 L 43.644531 34.035156 L 43.640625 34.058594 L 43.636719 34.085938 L 43.632812 34.109375 L 43.628906 34.136719 L 43.625 34.160156 L 43.617188 34.183594 L 43.613281 34.210938 L 43.609375 34.234375 L 43.601562 34.257812 L 43.597656 34.28125 L 43.589844 34.304688 L 42.125 32.84375 L 42.109375 32.84375 L 42.074219 32.847656 L 42.011719 32.855469 L 41.976562 32.859375 L 41.945312 32.859375 L 41.910156 32.863281 L 41.742188 32.863281 L 41.707031 32.859375 L 41.675781 32.855469 L 41.675781 33.539062 L 44.117188 35.980469 L 43.933594 35.796875 L 43.957031 35.816406 L 44.039062 35.898438 L 44.078125 35.941406 L 44.117188 35.980469 L 44.152344 36.023438 L 44.191406 36.0625 L 44.222656 36.105469 L 44.257812 36.148438 L 44.289062 36.1875 L 44.320312 36.230469 L 44.429688 36.402344 L 44.453125 36.449219 L 44.5 36.535156 L 44.519531 36.582031 L 44.539062 36.625 L 44.578125 36.71875 L 44.597656 36.761719 L 44.644531 36.902344 L 44.65625 36.945312 L 44.667969 36.992188 L 44.683594 37.035156 L 44.691406 37.082031 L 44.714844 37.175781 L 44.722656 37.222656 L 44.730469 37.265625 L 44.746094 37.359375 L 44.753906 37.410156 L 44.757812 37.457031 L 44.765625 37.503906 L 44.769531 37.550781 L 44.773438 37.601562 L 44.78125 37.695312 L 44.789062 37.796875 L 44.789062 37.84375 L 44.792969 37.894531 L 44.792969 37.945312 L 44.796875 37.996094 L 44.796875 38.097656 L 44.800781 38.148438 L 44.800781 38.566406 L 44.679688 38.65625 L 44.601562 38.71875 L 44.519531 38.777344 L 44.355469 38.886719 L 44.273438 38.9375 L 44.101562 39.039062 L 44.015625 39.085938 L 43.925781 39.132812 L 43.839844 39.175781 L 43.570312 39.292969 L 43.476562 39.328125 L 43.386719 39.363281 L 43.199219 39.425781 L 43.011719 39.480469 L 42.824219 39.527344 L 42.726562 39.550781 L 42.632812 39.570312 L 42.4375 39.601562 L 42.339844 39.613281 L 42.246094 39.625 L 42.148438 39.636719 L 41.953125 39.652344 L 41.855469 39.65625 L 41.746094 39.65625 L 41.734375 39.660156 L 41.617188 39.660156 L 41.609375 39.65625 L 41.523438 39.65625 L 41.382812 39.648438 L 41.308594 39.644531 L 41.238281 39.640625 L 41.097656 39.625 L 41.023438 39.617188 L 40.953125 39.609375 L 40.742188 39.574219 L 40.671875 39.558594 L 40.601562 39.546875 L 40.53125 39.53125 L 40.460938 39.511719 L 40.390625 39.496094 L 40.324219 39.476562 L 40.183594 39.4375 L 40.117188 39.414062 L 40.046875 39.394531 L 39.980469 39.367188 L 39.847656 39.320312 L 39.777344 39.292969 L 39.710938 39.265625 L 39.648438 39.238281 L 39.449219 39.144531 L 39.386719 39.113281 L 38.222656 39.773438 L 38.199219 39.789062 L 38.175781 39.796875 L 38.160156 39.804688 L 38.125 39.816406 L 38.125 39.851562 L 38.132812 39.921875 L 38.136719 39.960938 L 38.140625 39.996094 L 38.140625 40.03125 L 38.144531 40.066406 L 38.144531 40.105469 L 38.148438 40.140625 L 38.148438 40.179688 L 38.152344 40.214844 L 38.152344 40.25 L 38.15625 40.289062 L 38.15625 40.363281 L 38.160156 40.402344 L 38.160156 40.515625 L 38.164062 40.550781 L 38.164062 40.820312 L 38.167969 40.859375 L 38.167969 41.230469 L 38 41.359375 L 37.890625 41.441406 L 37.777344 41.523438 L 37.664062 41.601562 L 37.546875 41.675781 L 37.433594 41.75 L 37.3125 41.820312 L 37.195312 41.886719 L 37.074219 41.953125 L 36.953125 42.015625 L 36.832031 42.074219 L 36.707031 42.132812 L 36.457031 42.242188 L 36.328125 42.289062 L 36.203125 42.335938 L 36.074219 42.382812 L 35.945312 42.425781 L 35.8125 42.464844 L 35.683594 42.5 L 35.550781 42.535156 L 35.285156 42.597656 L 35.152344 42.625 L 35.019531 42.648438 L 34.886719 42.667969 L 34.75 42.6875 L 34.617188 42.703125 L 34.480469 42.71875 L 34.347656 42.730469 L 34.210938 42.738281 L 34.074219 42.742188 L 33.941406 42.746094 L 33.882812 42.746094 L 33.867188 42.75 L 33.785156 42.75 L 33.773438 42.746094 L 33.714844 42.746094 L 33.582031 42.742188 L 33.445312 42.738281 L 33.308594 42.730469 L 33.175781 42.71875 L 32.902344 42.6875 L 32.636719 42.648438 L 32.5 42.625 L 32.367188 42.597656 L 32.101562 42.535156 L 31.972656 42.503906 L 31.839844 42.464844 L 31.710938 42.425781 L 31.453125 42.339844 L 31.324219 42.292969 L 31.199219 42.242188 L 31.070312 42.1875 L 30.945312 42.132812 L 30.824219 42.078125 L 30.699219 42.015625 L 30.578125 41.953125 L 30.457031 41.886719 L 30.339844 41.820312 L 30.21875 41.75 L 30.105469 41.675781 L 29.988281 41.601562 L 29.875 41.523438 L 29.761719 41.441406 L 29.652344 41.359375 L 29.484375 41.226562 L 27.59375 39.339844 L 27.578125 39.347656 L 27.296875 39.441406 L 27.222656 39.460938 L 27.152344 39.484375 L 27.082031 39.5 L 27.007812 39.519531 L 26.9375 39.535156 L 26.789062 39.566406 L 26.71875 39.578125 L 26.644531 39.59375 L 26.570312 39.605469 L 26.496094 39.613281 L 26.421875 39.625 L 26.347656 39.632812 L 26.273438 39.636719 L 26.203125 39.644531 L 25.980469 39.65625 L 25.890625 39.65625 L 25.882812 39.660156 L 25.765625 39.660156 L 25.753906 39.65625 L 25.644531 39.65625 L 25.546875 39.652344 L 25.351562 39.636719 L 25.257812 39.628906 L 25.160156 39.617188 L 24.867188 39.570312 L 24.773438 39.550781 L 24.675781 39.527344 L 24.582031 39.507812 L 24.300781 39.425781 L 24.113281 39.363281 L 24.019531 39.328125 L 23.839844 39.257812 L 23.75 39.214844 L 23.660156 39.175781 L 23.570312 39.132812 L 23.3125 38.992188 L 23.226562 38.9375 L 23.140625 38.886719 L 22.976562 38.777344 L 22.898438 38.71875 L 22.816406 38.65625 L 22.695312 38.5625 L 4.949219 20.816406 L 4.949219 20.34375 C 4.949219 20.328125 4.953125 20.308594 4.953125 20.292969 L 4.953125 20.238281 C 4.953125 20.222656 4.953125 20.207031 4.953125 20.1875 C 4.957031 20.171875 4.957031 20.152344 4.957031 20.136719 C 4.957031 20.121094 4.957031 20.101562 4.960938 20.085938 C 4.960938 20.070312 4.960938 20.050781 4.960938 20.035156 C 4.964844 20.019531 4.964844 20 4.964844 19.984375 C 4.964844 19.96875 4.96875 19.953125 4.96875 19.933594 C 4.96875 19.917969 4.972656 19.902344 4.972656 19.886719 C 4.972656 19.867188 4.976562 19.851562 4.976562 19.835938 C 4.980469 19.820312 4.980469 19.800781 4.980469 19.785156 C 4.984375 19.769531 4.984375 19.753906 4.988281 19.738281 C 4.988281 19.722656 4.992188 19.703125 4.992188 19.6875 C 4.996094 19.671875 4.996094 19.65625 5 19.640625 C 5.003906 19.625 5.003906 19.609375 5.007812 19.589844 C 5.011719 19.574219 5.011719 19.558594 5.015625 19.542969 C 5.019531 19.527344 5.019531 19.511719 5.023438 19.496094 C 5.027344 19.480469 5.03125 19.464844 5.03125 19.449219 C 5.035156 19.433594 5.039062 19.417969 5.042969 19.402344 C 5.046875 19.386719 5.050781 19.367188 5.054688 19.351562 C 5.058594 19.335938 5.0625 19.320312 5.066406 19.304688 C 5.066406 19.289062 5.074219 19.273438 5.078125 19.257812 C 5.082031 19.242188 5.085938 19.226562 5.089844 19.214844 C 5.09375 19.199219 5.097656 19.183594 5.101562 19.167969 C 5.109375 19.152344 5.113281 19.136719 5.117188 19.121094 C 5.121094 19.105469 5.128906 19.089844 5.132812 19.074219 C 5.136719 19.058594 5.144531 19.042969 5.148438 19.027344 C 5.15625 19.011719 5.160156 18.996094 5.167969 18.980469 C 5.171875 18.964844 5.179688 18.949219 5.1875 18.933594 C 5.191406 18.917969 5.199219 18.902344 5.207031 18.886719 C 5.210938 18.871094 5.21875 18.855469 5.226562 18.839844 C 5.234375 18.824219 5.238281 18.8125 5.246094 18.796875 C 5.253906 18.78125 5.261719 18.765625 5.269531 18.75 C 5.277344 18.734375 5.285156 18.71875 5.292969 18.707031 C 5.300781 18.691406 5.308594 18.675781 5.320312 18.660156 C 5.328125 18.644531 5.335938 18.632812 5.34375 18.617188 C 5.351562 18.601562 5.363281 18.585938 5.371094 18.574219 C 5.378906 18.558594 5.390625 18.542969 5.398438 18.527344 C 5.410156 18.515625 5.417969 18.5 5.429688 18.484375 C 5.4375 18.472656 5.449219 18.457031 5.460938 18.441406 C 5.46875 18.429688 5.480469 18.414062 5.492188 18.398438 C 5.503906 18.386719 5.511719 18.371094 5.523438 18.355469 C 5.535156 18.34375 5.546875 18.328125 5.558594 18.316406 C 5.570312 18.300781 5.582031 18.285156 5.59375 18.273438 C 5.605469 18.257812 5.617188 18.246094 5.632812 18.230469 C 5.644531 18.21875 5.65625 18.203125 5.671875 18.191406 C 5.683594 18.175781 5.695312 18.164062 5.710938 18.148438 C 5.722656 18.136719 5.738281 18.121094 5.75 18.109375 C 5.765625 18.09375 5.777344 18.082031 5.792969 18.066406 C 5.808594 18.054688 5.824219 18.039062 5.835938 18.027344 C 5.851562 18.015625 5.867188 18 5.882812 17.988281 C 5.898438 17.972656 5.914062 17.960938 5.929688 17.949219 C 5.945312 17.933594 5.960938 17.921875 5.980469 17.910156 C 5.996094 17.894531 6.011719 17.882812 6.027344 17.867188 C 6.046875 17.855469 6.0625 17.84375 6.082031 17.832031 C 6.097656 17.816406 6.117188 17.804688 6.132812 17.792969 C 6.152344 17.777344 6.171875 17.765625 6.1875 17.753906 C 6.207031 17.742188 6.226562 17.726562 6.246094 17.714844 L 6.480469 17.554688 L 6.480469 17.546875 L 6.484375 17.550781 L 6.511719 17.535156 L 6.515625 17.539062 L 6.515625 17.535156 L 6.519531 17.535156 L 6.523438 17.53125 L 6.527344 17.53125 L 6.535156 17.527344 L 6.539062 17.527344 L 6.542969 17.523438 L 6.550781 17.523438 L 6.554688 17.519531 L 6.558594 17.519531 L 6.5625 17.515625 L 6.570312 17.515625 L 6.574219 17.511719 L 6.578125 17.511719 L 6.582031 17.507812 L 6.589844 17.507812 L 6.59375 17.503906 L 6.597656 17.503906 L 6.601562 17.5 L 6.609375 17.5 L 6.613281 17.496094 L 6.617188 17.496094 L 6.621094 17.492188 L 6.628906 17.492188 L 6.632812 17.488281 L 6.636719 17.488281 L 6.640625 17.484375 L 6.648438 17.484375 L 6.652344 17.480469 L 6.65625 17.480469 L 6.660156 17.476562 L 6.667969 17.476562 L 6.675781 17.46875 L 6.671875 17.46875 L 6.671875 17.464844 L 6.664062 17.457031 L 6.664062 17.453125 L 6.660156 17.453125 L 6.660156 17.449219 L 6.65625 17.449219 L 6.65625 17.445312 L 6.652344 17.445312 L 6.652344 17.4375 L 6.648438 17.4375 L 6.648438 17.433594 L 6.644531 17.433594 L 6.644531 17.429688 L 6.640625 17.429688 L 6.640625 17.425781 L 6.636719 17.425781 L 6.636719 17.421875 L 6.632812 17.417969 L 6.632812 17.414062 L 6.628906 17.414062 L 6.628906 17.410156 L 6.625 17.410156 L 6.625 17.40625 L 6.621094 17.402344 L 6.621094 17.398438 L 6.617188 17.398438 L 6.617188 17.394531 L 6.613281 17.394531 C 6.609375 17.386719 6.601562 17.378906 6.597656 17.371094 L 6.582031 17.347656 L 6.5625 17.324219 C 6.558594 17.316406 6.550781 17.308594 6.546875 17.300781 C 6.542969 17.292969 6.535156 17.285156 6.53125 17.277344 C 6.523438 17.269531 6.519531 17.261719 6.515625 17.253906 C 6.507812 17.246094 6.503906 17.238281 6.496094 17.230469 C 6.492188 17.21875 6.488281 17.210938 6.480469 17.203125 L 6.464844 17.179688 C 6.460938 17.171875 6.457031 17.164062 6.449219 17.152344 L 6.4375 17.128906 C 6.429688 17.121094 6.425781 17.113281 6.421875 17.101562 C 6.414062 17.09375 6.410156 17.085938 6.40625 17.078125 L 6.390625 17.050781 C 6.386719 17.042969 6.382812 17.035156 6.378906 17.027344 L 6.363281 17 C 6.359375 16.992188 6.355469 16.980469 6.351562 16.972656 C 6.34375 16.964844 6.339844 16.957031 6.335938 16.945312 L 6.324219 16.917969 C 6.320312 16.910156 6.316406 16.902344 6.308594 16.890625 C 6.304688 16.882812 6.300781 16.875 6.296875 16.863281 C 6.292969 16.855469 6.289062 16.847656 6.285156 16.835938 C 6.28125 16.828125 6.277344 16.820312 6.273438 16.808594 C 6.269531 16.800781 6.265625 16.792969 6.261719 16.78125 C 6.257812 16.773438 6.253906 16.761719 6.25 16.753906 C 6.246094 16.746094 6.242188 16.734375 6.238281 16.726562 L 6.226562 16.699219 L 6.21875 16.667969 C 6.214844 16.660156 6.210938 16.648438 6.207031 16.640625 L 6.195312 16.613281 L 6.1875 16.582031 C 6.183594 16.574219 6.179688 16.5625 6.175781 16.554688 L 6.164062 16.523438 L 6.152344 16.496094 L 6.140625 16.464844 L 6.128906 16.4375 L 6.121094 16.410156 L 6.109375 16.386719 L 6.101562 16.359375 C 6.097656 16.351562 6.09375 16.34375 6.09375 16.335938 C 6.089844 16.328125 6.085938 16.320312 6.085938 16.308594 C 6.082031 16.300781 6.078125 16.292969 6.078125 16.285156 C 6.074219 16.277344 6.070312 16.269531 6.070312 16.261719 C 6.066406 16.253906 6.066406 16.246094 6.0625 16.238281 C 6.058594 16.230469 6.058594 16.222656 6.054688 16.214844 C 6.054688 16.207031 6.050781 16.199219 6.050781 16.191406 C 6.046875 16.183594 6.046875 16.175781 6.042969 16.167969 C 6.042969 16.160156 6.039062 16.152344 6.039062 16.144531 C 6.039062 16.136719 6.035156 16.128906 6.035156 16.121094 C 6.03125 16.113281 6.03125 16.105469 6.03125 16.097656 C 6.027344 16.089844 6.027344 16.082031 6.027344 16.074219 C 6.023438 16.066406 6.023438 16.058594 6.023438 16.050781 C 6.019531 16.042969 6.019531 16.035156 6.019531 16.027344 C 6.015625 16.015625 6.015625 16.007812 6.015625 16 C 6.015625 15.992188 6.015625 15.984375 6.011719 15.976562 C 6.011719 15.964844 6.011719 15.957031 6.011719 15.949219 C 6.011719 15.941406 6.007812 15.929688 6.007812 15.921875 C 6.007812 15.914062 6.007812 15.902344 6.007812 15.894531 C 6.007812 15.882812 6.003906 15.875 6.003906 15.867188 C 6.003906 15.855469 6.003906 15.847656 6.003906 15.835938 L 6.003906 15.707031 C 6.003906 15.6875 6.003906 15.671875 6.003906 15.652344 C 6.003906 15.636719 6.003906 15.617188 6.003906 15.597656 C 6.003906 15.582031 6.003906 15.5625 6.007812 15.546875 C 6.007812 15.527344 6.007812 15.511719 6.011719 15.492188 C 6.011719 15.472656 6.011719 15.457031 6.015625 15.4375 C 6.015625 15.421875 6.019531 15.402344 6.019531 15.386719 C 6.023438 15.367188 6.023438 15.351562 6.027344 15.332031 C 6.03125 15.316406 6.03125 15.296875 6.035156 15.28125 C 6.039062 15.261719 6.042969 15.246094 6.042969 15.226562 C 6.046875 15.210938 6.050781 15.195312 6.054688 15.175781 C 6.058594 15.160156 6.0625 15.140625 6.066406 15.125 C 6.070312 15.109375 6.074219 15.089844 6.078125 15.074219 C 6.082031 15.058594 6.085938 15.039062 6.089844 15.023438 C 6.09375 15.007812 6.101562 14.988281 6.105469 14.972656 C 6.109375 14.957031 6.113281 14.941406 6.121094 14.925781 C 6.125 14.90625 6.132812 14.890625 6.136719 14.875 C 6.140625 14.859375 6.148438 14.84375 6.152344 14.828125 C 6.160156 14.808594 6.167969 14.792969 6.171875 14.777344 C 6.179688 14.761719 6.1875 14.746094 6.191406 14.730469 C 6.199219 14.714844 6.207031 14.699219 6.214844 14.683594 C 6.21875 14.667969 6.226562 14.65625 6.234375 14.640625 C 6.242188 14.625 6.25 14.609375 6.257812 14.59375 C 6.265625 14.578125 6.273438 14.5625 6.28125 14.550781 C 6.289062 14.535156 6.300781 14.519531 6.308594 14.507812 C 6.316406 14.492188 6.324219 14.476562 6.335938 14.464844 C 6.34375 14.449219 6.351562 14.433594 6.363281 14.421875 C 6.371094 14.40625 6.378906 14.394531 6.390625 14.378906 C 6.398438 14.367188 6.410156 14.355469 6.421875 14.339844 C 6.429688 14.328125 6.441406 14.316406 6.453125 14.300781 C 6.460938 14.289062 6.472656 14.277344 6.484375 14.261719 C 6.496094 14.25 6.503906 14.238281 6.515625 14.226562 C 6.527344 14.214844 6.539062 14.203125 6.550781 14.191406 C 6.574219 14.167969 6.59375 14.148438 6.617188 14.125 L 6.621094 14.125 L 6.621094 14.121094 C 6.644531 14.101562 6.667969 14.082031 6.691406 14.0625 L 6.695312 14.0625 C 6.71875 14.042969 6.742188 14.023438 6.765625 14.007812 L 6.769531 14.003906 L 6.773438 14.003906 C 6.796875 13.984375 6.824219 13.96875 6.847656 13.953125 L 6.851562 13.949219 L 6.855469 13.949219 C 6.878906 13.933594 6.90625 13.917969 6.929688 13.902344 L 6.933594 13.898438 L 6.9375 13.898438 C 6.964844 13.882812 6.988281 13.871094 7.015625 13.855469 L 7.019531 13.855469 L 7.027344 13.851562 C 7.050781 13.835938 7.078125 13.824219 7.105469 13.8125 L 7.109375 13.8125 L 7.117188 13.808594 C 7.144531 13.796875 7.171875 13.785156 7.199219 13.773438 L 7.203125 13.773438 L 7.207031 13.769531 C 7.234375 13.757812 7.265625 13.75 7.292969 13.738281 L 7.296875 13.738281 L 7.304688 13.734375 C 7.332031 13.726562 7.359375 13.71875 7.390625 13.710938 L 7.394531 13.707031 L 7.398438 13.707031 C 7.429688 13.699219 7.457031 13.691406 7.488281 13.683594 L 7.492188 13.679688 L 7.496094 13.679688 C 7.527344 13.671875 7.558594 13.667969 7.585938 13.660156 L 7.597656 13.660156 C 7.628906 13.652344 7.660156 13.648438 7.691406 13.644531 L 7.695312 13.640625 L 7.699219 13.640625 C 7.730469 13.636719 7.761719 13.632812 7.792969 13.628906 L 7.800781 13.628906 C 7.832031 13.625 7.867188 13.621094 7.898438 13.621094 L 7.902344 13.621094 C 7.9375 13.617188 7.972656 13.617188 8.003906 13.617188 L 8.007812 13.617188 C 8.039062 13.617188 8.074219 13.617188 8.109375 13.617188 L 8.113281 13.617188 C 8.144531 13.617188 8.179688 13.621094 8.210938 13.621094 L 8.214844 13.621094 L 8.21875 13.625 C 8.25 13.625 8.285156 13.628906 8.316406 13.632812 L 8.324219 13.632812 C 8.355469 13.636719 8.386719 13.640625 8.417969 13.648438 L 8.429688 13.648438 C 8.460938 13.65625 8.492188 13.660156 8.519531 13.667969 L 8.53125 13.667969 C 8.5625 13.675781 8.59375 13.683594 8.621094 13.691406 L 8.628906 13.691406 L 8.636719 13.695312 C 8.664062 13.703125 8.695312 13.710938 8.722656 13.722656 L 8.730469 13.722656 L 8.734375 13.726562 C 8.765625 13.734375 8.792969 13.746094 8.824219 13.757812 L 8.828125 13.757812 L 8.832031 13.761719 C 8.863281 13.773438 8.890625 13.785156 8.921875 13.796875 L 8.925781 13.796875 L 8.929688 13.800781 C 8.960938 13.8125 8.988281 13.828125 9.015625 13.839844 L 9.023438 13.84375 L 9.027344 13.847656 C 9.054688 13.859375 9.082031 13.875 9.109375 13.890625 L 9.117188 13.894531 L 9.117188 13.898438 C 9.148438 13.914062 9.175781 13.929688 9.203125 13.949219 L 9.207031 13.949219 L 9.207031 13.953125 C 9.238281 13.972656 9.261719 13.988281 9.289062 14.011719 L 9.292969 14.011719 L 9.296875 14.015625 C 9.324219 14.035156 9.351562 14.054688 9.378906 14.078125 L 9.378906 14.082031 C 9.40625 14.105469 9.433594 14.128906 9.460938 14.152344 C 9.488281 14.175781 9.511719 14.203125 9.539062 14.230469 L 14.105469 18.796875 L 14.105469 18.792969 L 14.101562 18.792969 L 14.101562 18.789062 L 14.097656 18.789062 L 14.097656 18.785156 L 14.09375 18.785156 L 14.09375 18.78125 L 14.089844 18.777344 L 14.089844 18.773438 L 14.085938 18.773438 L 14.085938 18.769531 L 14.082031 18.769531 L 14.082031 18.765625 L 14.074219 18.757812 L 14.074219 18.753906 L 14.070312 18.753906 L 14.070312 18.75 L 14.066406 18.75 L 14.066406 18.746094 L 14.058594 18.738281 L 14.058594 18.734375 L 14.054688 18.734375 L 14.054688 18.730469 L 14.050781 18.730469 L 14.050781 18.726562 L 14.03125 18.703125 L 14.011719 18.675781 L 13.992188 18.652344 C 13.988281 18.640625 13.980469 18.632812 13.976562 18.625 L 13.9375 18.570312 L 13.921875 18.546875 L 13.882812 18.492188 L 13.867188 18.464844 L 13.847656 18.4375 L 13.816406 18.382812 L 13.796875 18.351562 C 13.792969 18.34375 13.789062 18.332031 13.78125 18.324219 L 13.765625 18.296875 L 13.75 18.265625 L 13.71875 18.210938 L 13.703125 18.179688 L 13.6875 18.152344 L 13.65625 18.089844 C 13.652344 18.082031 13.648438 18.070312 13.644531 18.0625 L 13.613281 18 L 13.601562 17.972656 L 13.59375 17.949219 L 13.5 17.859375 C 13.496094 17.847656 13.488281 17.832031 13.484375 17.820312 C 13.480469 17.808594 13.472656 17.796875 13.46875 17.785156 C 13.464844 17.773438 13.460938 17.761719 13.457031 17.746094 C 13.449219 17.734375 13.445312 17.722656 13.441406 17.710938 C 13.4375 17.699219 13.433594 17.6875 13.429688 17.671875 C 13.421875 17.660156 13.417969 17.648438 13.414062 17.636719 C 13.410156 17.621094 13.40625 17.609375 13.402344 17.597656 C 13.398438 17.585938 13.394531 17.574219 13.390625 17.558594 C 13.386719 17.546875 13.382812 17.535156 13.378906 17.523438 C 13.375 17.507812 13.371094 17.496094 13.367188 17.484375 C 13.363281 17.46875 13.359375 17.457031 13.355469 17.445312 C 13.351562 17.433594 13.347656 17.417969 13.34375 17.40625 C 13.339844 17.394531 13.335938 17.378906 13.332031 17.367188 C 13.328125 17.355469 13.324219 17.34375 13.324219 17.328125 C 13.320312 17.316406 13.316406 17.304688 13.3125 17.289062 C 13.308594 17.277344 13.304688 17.265625 13.304688 17.25 C 13.300781 17.238281 13.296875 17.222656 13.292969 17.210938 C 13.289062 17.199219 13.289062 17.183594 13.285156 17.171875 C 13.28125 17.160156 13.28125 17.144531 13.277344 17.132812 C 13.273438 17.121094 13.273438 17.105469 13.269531 17.09375 C 13.265625 17.078125 13.265625 17.066406 13.261719 17.054688 C 13.257812 17.039062 13.257812 17.027344 13.253906 17.011719 C 13.253906 17 13.25 16.988281 13.246094 16.972656 C 13.246094 16.960938 13.242188 16.945312 13.242188 16.933594 C 13.238281 16.917969 13.238281 16.90625 13.234375 16.894531 C 13.234375 16.878906 13.230469 16.867188 13.230469 16.851562 C 13.230469 16.839844 13.226562 16.824219 13.226562 16.8125 L 13.226562 16.804688 L 12.425781 16.007812 C 12.390625 15.972656 12.351562 15.933594 12.316406 15.898438 L 12.308594 15.894531 L 12.304688 15.886719 C 12.269531 15.851562 12.234375 15.816406 12.199219 15.777344 L 12.195312 15.777344 L 12.195312 15.773438 C 12.160156 15.738281 12.125 15.699219 12.089844 15.660156 L 12.082031 15.652344 C 12.050781 15.613281 12.015625 15.574219 11.984375 15.535156 L 11.980469 15.53125 C 11.945312 15.492188 11.914062 15.449219 11.882812 15.410156 L 11.878906 15.40625 L 11.875 15.398438 C 11.84375 15.359375 11.816406 15.320312 11.785156 15.28125 L 11.78125 15.273438 C 11.75 15.230469 11.71875 15.1875 11.691406 15.144531 L 11.683594 15.136719 C 11.65625 15.097656 11.628906 15.054688 11.601562 15.011719 L 11.597656 15.007812 L 11.597656 15.003906 C 11.570312 14.957031 11.542969 14.914062 11.515625 14.871094 L 11.515625 14.867188 L 11.511719 14.863281 C 11.484375 14.820312 11.460938 14.777344 11.4375 14.734375 L 11.433594 14.726562 L 11.429688 14.722656 C 11.40625 14.675781 11.382812 14.632812 11.359375 14.585938 L 11.359375 14.582031 L 11.355469 14.582031 C 11.332031 14.535156 11.3125 14.488281 11.289062 14.445312 L 11.285156 14.4375 L 11.285156 14.433594 C 11.261719 14.386719 11.242188 14.339844 11.21875 14.292969 L 11.21875 14.289062 C 11.199219 14.242188 11.179688 14.191406 11.160156 14.144531 L 11.15625 14.140625 L 11.152344 14.132812 C 11.136719 14.085938 11.117188 14.039062 11.101562 13.988281 L 11.097656 13.988281 L 11.097656 13.984375 C 11.082031 13.9375 11.0625 13.886719 11.046875 13.839844 L 11.046875 13.832031 L 11.042969 13.824219 C 11.027344 13.777344 11.011719 13.730469 11 13.679688 L 10.996094 13.675781 L 10.996094 13.671875 C 10.984375 13.625 10.96875 13.574219 10.957031 13.523438 L 10.953125 13.519531 L 10.953125 13.511719 C 10.941406 13.464844 10.929688 13.414062 10.917969 13.367188 L 10.917969 13.359375 L 10.914062 13.355469 C 10.902344 13.304688 10.894531 13.25 10.882812 13.199219 L 10.882812 13.191406 C 10.871094 13.140625 10.863281 13.089844 10.855469 13.042969 L 10.855469 13.03125 C 10.847656 12.976562 10.839844 12.925781 10.832031 12.871094 L 10.832031 12.867188 C 10.824219 12.816406 10.820312 12.765625 10.816406 12.710938 L 10.8125 12.707031 L 10.8125 12.699219 C 10.808594 12.648438 10.804688 12.59375 10.800781 12.539062 L 10.800781 12.535156 C 10.796875 12.484375 10.796875 12.429688 10.796875 12.378906 L 10.792969 12.371094 L 10.792969 12.367188 C 10.792969 12.3125 10.792969 12.257812 10.792969 12.203125 L 10.792969 12.167969 C 10.792969 12.15625 10.792969 12.144531 10.792969 12.132812 L 10.792969 12.09375 L 10.796875 12.058594 L 10.796875 12.023438 L 10.800781 11.984375 L 10.800781 11.949219 C 10.800781 11.9375 10.800781 11.925781 10.804688 11.914062 L 10.804688 11.875 L 10.808594 11.839844 L 10.8125 11.800781 L 10.8125 11.765625 L 10.816406 11.730469 L 10.820312 11.691406 L 10.828125 11.621094 C 10.832031 11.605469 10.832031 11.59375 10.835938 11.582031 L 10.839844 11.546875 L 10.84375 11.507812 L 10.851562 11.472656 L 10.855469 11.433594 L 10.859375 11.398438 L 10.867188 11.363281 C 10.871094 11.347656 10.871094 11.335938 10.875 11.324219 L 10.878906 11.289062 L 10.886719 11.25 L 10.894531 11.214844 L 10.902344 11.175781 L 10.910156 11.140625 L 10.917969 11.101562 L 10.933594 11.03125 C 10.941406 11.007812 10.945312 10.984375 10.953125 10.960938 C 10.957031 10.941406 10.964844 10.917969 10.96875 10.894531 C 10.976562 10.875 10.980469 10.851562 10.988281 10.828125 C 10.992188 10.808594 11 10.785156 11.003906 10.761719 C 11.011719 10.742188 11.019531 10.71875 11.023438 10.699219 C 11.03125 10.675781 11.039062 10.65625 11.046875 10.632812 C 11.054688 10.609375 11.058594 10.589844 11.066406 10.566406 C 11.074219 10.546875 11.082031 10.523438 11.089844 10.503906 C 11.097656 10.484375 11.105469 10.460938 11.113281 10.441406 C 11.121094 10.417969 11.128906 10.398438 11.136719 10.375 C 11.144531 10.355469 11.152344 10.335938 11.160156 10.3125 C 11.167969 10.292969 11.175781 10.273438 11.183594 10.25 C 11.195312 10.230469 11.203125 10.210938 11.210938 10.1875 C 11.21875 10.167969 11.226562 10.148438 11.238281 10.128906 C 11.246094 10.109375 11.253906 10.085938 11.265625 10.066406 C 11.273438 10.046875 11.285156 10.027344 11.292969 10.007812 C 11.300781 9.984375 11.3125 9.964844 11.320312 9.945312 C 11.332031 9.925781 11.339844 9.90625 11.351562 9.886719 C 11.359375 9.867188 11.371094 9.847656 11.382812 9.828125 C 11.390625 9.808594 11.402344 9.789062 11.410156 9.769531 C 11.421875 9.75 11.433594 9.730469 11.445312 9.710938 C 11.453125 9.691406 11.464844 9.671875 11.476562 9.652344 C 11.488281 9.632812 11.496094 9.613281 11.507812 9.59375 C 11.519531 9.578125 11.53125 9.558594 11.542969 9.539062 C 11.554688 9.519531 11.566406 9.5 11.578125 9.484375 C 11.589844 9.464844 11.601562 9.445312 11.613281 9.425781 C 11.625 9.410156 11.636719 9.390625 11.648438 9.371094 C 11.660156 9.355469 11.671875 9.335938 11.683594 9.316406 C 11.695312 9.300781 11.707031 9.28125 11.71875 9.261719 C 11.734375 9.246094 11.746094 9.226562 11.757812 9.210938 C 11.769531 9.191406 11.785156 9.175781 11.796875 9.15625 C 11.808594 9.140625 11.820312 9.121094 11.835938 9.105469 L 11.839844 9.089844 L 11.847656 9.078125 L 11.855469 9.054688 L 11.875 9.007812 C 11.882812 8.996094 11.886719 8.984375 11.894531 8.972656 C 11.898438 8.960938 11.902344 8.949219 11.90625 8.941406 C 11.910156 8.929688 11.917969 8.921875 11.921875 8.910156 C 11.925781 8.902344 11.929688 8.894531 11.933594 8.886719 C 11.9375 8.878906 11.941406 8.871094 11.945312 8.867188 C 11.949219 8.859375 11.953125 8.851562 11.960938 8.847656 C 11.964844 8.839844 11.96875 8.832031 11.972656 8.828125 C 11.976562 8.820312 11.984375 8.8125 11.988281 8.808594 C 11.996094 8.800781 12 8.792969 12.007812 8.785156 C 12.011719 8.78125 12.019531 8.773438 12.027344 8.765625 L 12.050781 8.738281 L 12.085938 8.703125 L 12.09375 8.691406 L 12.148438 8.636719 C 12.164062 8.621094 12.179688 8.601562 12.195312 8.585938 C 12.210938 8.570312 12.226562 8.554688 12.242188 8.535156 C 12.257812 8.519531 12.273438 8.503906 12.289062 8.488281 C 12.304688 8.472656 12.320312 8.457031 12.339844 8.441406 C 12.355469 8.425781 12.371094 8.410156 12.386719 8.394531 C 12.40625 8.375 12.421875 8.359375 12.4375 8.34375 C 12.453125 8.332031 12.472656 8.316406 12.488281 8.300781 C 12.507812 8.285156 12.523438 8.269531 12.542969 8.253906 C 12.558594 8.238281 12.574219 8.222656 12.59375 8.207031 C 12.613281 8.195312 12.628906 8.179688 12.648438 8.164062 C 12.664062 8.148438 12.683594 8.132812 12.703125 8.121094 C 12.71875 8.105469 12.738281 8.089844 12.757812 8.078125 C 12.773438 8.0625 12.792969 8.046875 12.8125 8.035156 C 12.832031 8.019531 12.851562 8.007812 12.867188 7.992188 C 12.886719 7.980469 12.90625 7.964844 12.925781 7.953125 C 12.945312 7.9375 12.964844 7.925781 12.984375 7.910156 C 13.003906 7.898438 13.023438 7.882812 13.042969 7.871094 C 13.0625 7.859375 13.082031 7.84375 13.101562 7.832031 C 13.121094 7.820312 13.140625 7.804688 13.164062 7.792969 C 13.183594 7.78125 13.203125 7.769531 13.222656 7.753906 C 13.242188 7.742188 13.265625 7.730469 13.285156 7.71875 C 13.304688 7.707031 13.328125 7.695312 13.347656 7.683594 C 13.367188 7.671875 13.390625 7.65625 13.410156 7.644531 C 13.429688 7.632812 13.453125 7.625 13.472656 7.613281 C 13.496094 7.601562 13.515625 7.589844 13.539062 7.578125 C 13.5625 7.566406 13.582031 7.554688 13.605469 7.542969 C 13.625 7.535156 13.648438 7.523438 13.671875 7.511719 C 13.691406 7.5 13.714844 7.492188 13.738281 7.480469 C 13.761719 7.46875 13.78125 7.460938 13.804688 7.449219 C 13.828125 7.4375 13.851562 7.429688 13.875 7.417969 C 13.894531 7.410156 13.917969 7.398438 13.941406 7.390625 C 13.964844 7.378906 13.988281 7.371094 14.011719 7.359375 L 14.074219 7.375 L 14.078125 7.378906 L 14.101562 7.371094 C 14.121094 7.363281 14.140625 7.355469 14.160156 7.347656 C 14.179688 7.339844 14.199219 7.332031 14.21875 7.324219 C 14.238281 7.316406 14.257812 7.308594 14.277344 7.304688 C 14.300781 7.296875 14.320312 7.289062 14.339844 7.28125 C 14.359375 7.273438 14.378906 7.269531 14.398438 7.261719 C 14.417969 7.253906 14.4375 7.25 14.457031 7.242188 C 14.480469 7.234375 14.5 7.230469 14.519531 7.222656 C 14.539062 7.21875 14.558594 7.210938 14.578125 7.207031 C 14.601562 7.199219 14.621094 7.195312 14.640625 7.1875 C 14.660156 7.183594 14.679688 7.175781 14.703125 7.171875 C 14.722656 7.167969 14.742188 7.160156 14.761719 7.15625 C 14.785156 7.152344 14.804688 7.144531 14.824219 7.140625 C 14.847656 7.136719 14.867188 7.132812 14.886719 7.125 C 14.90625 7.121094 14.929688 7.117188 14.949219 7.113281 C 14.96875 7.109375 14.992188 7.105469 15.011719 7.101562 C 15.03125 7.097656 15.054688 7.09375 15.074219 7.089844 C 15.09375 7.085938 15.117188 7.082031 15.136719 7.078125 C 15.15625 7.074219 15.179688 7.070312 15.199219 7.066406 C 15.21875 7.0625 15.242188 7.058594 15.261719 7.058594 C 15.285156 7.054688 15.304688 7.050781 15.324219 7.046875 C 15.347656 7.042969 15.367188 7.042969 15.390625 7.039062 C 15.410156 7.035156 15.433594 7.035156 15.453125 7.03125 C 15.472656 7.03125 15.496094 7.027344 15.515625 7.023438 C 15.539062 7.023438 15.558594 7.019531 15.582031 7.019531 C 15.601562 7.015625 15.625 7.015625 15.644531 7.015625 C 15.667969 7.011719 15.6875 7.011719 15.710938 7.011719 C 15.730469 7.007812 15.753906 7.007812 15.773438 7.007812 C 15.792969 7.003906 15.816406 7.003906 15.839844 7.003906 C 15.859375 7.003906 15.882812 7.003906 15.902344 7 C 15.925781 7 15.945312 7 15.96875 7 C 15.988281 7 16.011719 7 16.03125 7 L 16.148438 7 L 16.183594 7.003906 C 16.195312 7.003906 16.207031 7.003906 16.21875 7.003906 L 16.257812 7.003906 L 16.292969 7.007812 L 16.328125 7.007812 L 16.367188 7.011719 L 16.402344 7.015625 L 16.4375 7.015625 L 16.472656 7.019531 L 16.511719 7.023438 L 16.582031 7.03125 L 16.621094 7.035156 L 16.691406 7.042969 L 16.730469 7.046875 L 16.765625 7.054688 L 16.800781 7.058594 L 16.839844 7.0625 L 16.910156 7.078125 L 16.949219 7.082031 L 17.019531 7.097656 L 17.058594 7.105469 L 17.09375 7.109375 L 17.128906 7.117188 C 17.140625 7.121094 17.152344 7.125 17.167969 7.125 L 17.203125 7.136719 L 17.222656 7.140625 C 17.257812 7.148438 17.296875 7.15625 17.335938 7.167969 L 17.339844 7.167969 L 17.34375 7.171875 C 17.378906 7.179688 17.414062 7.1875 17.449219 7.199219 L 17.457031 7.199219 L 17.460938 7.203125 C 17.496094 7.210938 17.53125 7.222656 17.566406 7.234375 L 17.574219 7.234375 C 17.609375 7.246094 17.644531 7.257812 17.683594 7.269531 L 17.6875 7.273438 C 17.722656 7.285156 17.757812 7.296875 17.792969 7.308594 L 17.796875 7.308594 L 17.800781 7.3125 C 17.835938 7.324219 17.871094 7.335938 17.902344 7.351562 L 17.910156 7.351562 C 17.945312 7.367188 17.984375 7.382812 18.019531 7.394531 C 18.054688 7.410156 18.085938 7.425781 18.121094 7.441406 L 18.125 7.441406 L 18.132812 7.445312 C 18.164062 7.457031 18.195312 7.472656 18.226562 7.488281 L 18.234375 7.492188 L 18.238281 7.492188 C 18.269531 7.507812 18.300781 7.523438 18.332031 7.539062 L 18.339844 7.539062 L 18.339844 7.542969 C 18.375 7.558594 18.40625 7.574219 18.441406 7.59375 L 18.445312 7.597656 C 18.476562 7.613281 18.507812 7.628906 18.539062 7.648438 L 18.542969 7.648438 L 18.546875 7.652344 C 18.578125 7.667969 18.609375 7.6875 18.640625 7.703125 L 18.644531 7.707031 L 18.648438 7.707031 C 18.679688 7.726562 18.710938 7.746094 18.742188 7.765625 C 18.773438 7.785156 18.804688 7.804688 18.835938 7.824219 L 18.839844 7.828125 L 18.847656 7.832031 C 18.875 7.847656 18.902344 7.867188 18.933594 7.886719 L 18.941406 7.894531 C 18.972656 7.914062 19 7.933594 19.03125 7.953125 L 19.03125 7.957031 C 19.0625 7.976562 19.09375 8 19.121094 8.019531 L 19.125 8.023438 L 19.128906 8.023438 C 19.15625 8.046875 19.183594 8.066406 19.210938 8.089844 L 19.214844 8.09375 L 19.21875 8.09375 C 19.246094 8.117188 19.273438 8.136719 19.300781 8.160156 L 19.304688 8.164062 C 19.335938 8.1875 19.363281 8.210938 19.390625 8.234375 C 19.417969 8.261719 19.445312 8.285156 19.472656 8.308594 L 19.476562 8.3125 L 19.480469 8.3125 C 19.507812 8.335938 19.53125 8.359375 19.558594 8.382812 L 19.566406 8.390625 C 19.589844 8.414062 19.613281 8.4375 19.640625 8.460938 L 19.644531 8.464844 L 19.644531 8.46875 C 19.671875 8.492188 19.695312 8.519531 19.722656 8.542969 L 19.722656 8.546875 C 19.75 8.570312 19.773438 8.597656 19.796875 8.625 L 19.804688 8.632812 C 19.828125 8.65625 19.851562 8.679688 19.875 8.707031 L 19.878906 8.710938 L 19.878906 8.714844 C 19.90625 8.742188 19.929688 8.765625 19.953125 8.796875 L 25.269531 14.113281 C 25.285156 14.125 25.300781 14.140625 25.3125 14.152344 C 25.339844 14.179688 25.367188 14.203125 25.390625 14.230469 Z M 37.1875 26.023438 "/>
</g>
</g>
<path style=" stroke:none;fill-rule:evenodd;fill:rgb(42.352942%,76.078433%,87.843138%);fill-opacity:1;" d="M 17.230469 7.054688 C 17.222656 7.054688 17.21875 7.050781 17.210938 7.050781 C 16.816406 6.957031 16.421875 6.914062 16.03125 6.914062 L 16.027344 6.914062 C 13.640625 6.914062 11.472656 8.554688 10.898438 10.984375 C 10.804688 11.378906 10.757812 11.777344 10.753906 12.167969 C 10.738281 14.558594 12.367188 16.71875 14.789062 17.28125 C 14.792969 17.28125 14.800781 17.285156 14.804688 17.285156 C 17.617188 17.925781 20.429688 16.167969 21.101562 13.347656 C 21.765625 10.53125 20.035156 7.71875 17.230469 7.054688 Z M 17.230469 7.054688 "/>
<path style=" stroke:none;fill-rule:evenodd;fill:rgb(42.352942%,76.078433%,87.843138%);fill-opacity:1;" d="M 16.03125 6.914062 C 13.644531 6.910156 11.472656 8.554688 10.898438 10.984375 C 10.804688 11.378906 10.757812 11.777344 10.753906 12.167969 C 10.738281 14.558594 12.367188 16.71875 14.789062 17.28125 C 14.792969 17.28125 14.800781 17.285156 14.808594 17.285156 C 15.195312 17.375 15.582031 17.417969 15.964844 17.417969 Z M 16.03125 6.914062 "/>
<path style=" stroke:none;fill-rule:evenodd;fill:rgb(37.254903%,70.19608%,81.176472%);fill-opacity:1;" d="M 17.230469 7.054688 C 17.222656 7.054688 17.21875 7.050781 17.210938 7.050781 C 16.820312 6.957031 16.425781 6.914062 16.039062 6.914062 C 16.039062 6.914062 16.035156 6.914062 16.03125 6.914062 L 15.964844 17.417969 C 18.355469 17.417969 20.523438 15.777344 21.101562 13.347656 C 21.765625 10.53125 20.035156 7.71875 17.230469 7.054688 Z M 17.230469 7.054688 "/>
<path style=" stroke:none;fill-rule:evenodd;fill:rgb(65.098041%,49.019608%,43.137255%);fill-opacity:1;" d="M 21.191406 11.367188 C 21.078125 10.53125 20.761719 9.742188 20.28125 9.0625 L 20.203125 9.148438 L 19.945312 9.1875 L 19.820312 9.273438 L 19.8125 9.402344 L 19.929688 9.449219 L 19.960938 9.648438 L 20.191406 9.613281 L 20.167969 9.867188 L 20.105469 9.851562 L 19.9375 9.785156 L 19.738281 9.773438 L 19.492188 9.992188 L 19.21875 9.972656 L 19.125 10.191406 L 19.230469 10.242188 L 19.164062 10.382812 L 18.914062 10.269531 L 18.660156 10.265625 L 18.578125 10.390625 L 18.554688 10.679688 L 18.679688 10.78125 L 18.917969 10.832031 L 19.078125 10.855469 L 19.160156 10.738281 L 19.488281 10.46875 L 19.644531 10.542969 L 19.839844 10.433594 L 19.84375 10.554688 L 20.175781 10.917969 L 20.113281 10.972656 L 19.933594 10.921875 L 19.980469 11.035156 L 20.085938 11.085938 L 20.230469 11.0625 L 20.265625 10.902344 L 20.328125 10.886719 L 20.292969 10.828125 L 20.0625 10.617188 L 20.039062 10.402344 L 20.261719 10.457031 L 20.3125 10.542969 L 20.464844 10.75 L 20.425781 10.953125 L 20.574219 11.207031 L 20.714844 10.9375 L 20.871094 10.894531 L 20.839844 11.136719 L 20.9375 11.3125 Z M 21.191406 11.367188 "/>
<path style=" stroke:none;fill-rule:evenodd;fill:rgb(61.960787%,81.176472%,48.627451%);fill-opacity:1;" d="M 19.226562 16.285156 C 20.148438 15.570312 20.820312 14.535156 21.109375 13.3125 C 21.226562 12.8125 21.261719 12.300781 21.234375 11.816406 L 21.210938 11.828125 L 20.804688 11.734375 L 20.601562 11.492188 L 20.335938 11.457031 L 20.296875 11.617188 L 20.214844 11.597656 L 20.140625 11.511719 L 19.714844 11.292969 L 19.785156 10.996094 L 19.199219 10.910156 L 19 10.964844 L 18.773438 10.914062 L 18.664062 10.875 L 18.351562 10.964844 L 18.28125 11.253906 L 17.621094 11.53125 L 17.625 11.71875 L 17.742188 11.742188 L 17.671875 11.902344 L 17.585938 11.914062 L 17.476562 12.347656 L 17.832031 13.019531 L 18.046875 13.066406 L 18.066406 13.035156 L 18.449219 13.125 L 18.582031 13.050781 L 18.800781 13.097656 L 18.890625 13.246094 L 19.203125 13.355469 L 19.058594 13.773438 L 19.265625 14.492188 C 18.730469 15.117188 19.203125 15.507812 19.035156 16.226562 Z M 19.226562 16.285156 "/>
<path style=" stroke:none;fill-rule:evenodd;fill:rgb(99.607843%,99.607843%,99.607843%);fill-opacity:1;" d="M 13.117188 8.570312 L 13.089844 8.523438 L 13.097656 8.511719 L 13.132812 8.550781 Z M 13.117188 8.570312 "/>
<path style=" stroke:none;fill-rule:evenodd;fill:rgb(99.607843%,99.607843%,99.607843%);fill-opacity:1;" d="M 14.027344 7.335938 L 14.046875 7.375 C 14.046875 7.378906 14.046875 7.382812 14.042969 7.386719 L 14.03125 7.402344 L 14.035156 7.4375 L 14.035156 7.503906 L 14.039062 7.539062 C 14.042969 7.542969 14.050781 7.5625 14.050781 7.566406 L 14.0625 7.636719 C 14.066406 7.640625 14.078125 7.644531 14.070312 7.65625 L 14.015625 7.726562 C 14.011719 7.730469 14.011719 7.730469 14.007812 7.730469 L 13.972656 7.734375 C 13.96875 7.738281 13.949219 7.75 13.945312 7.75 L 13.914062 7.753906 C 13.910156 7.757812 13.90625 7.761719 13.902344 7.761719 L 13.878906 7.777344 C 13.871094 7.777344 13.867188 7.769531 13.863281 7.773438 L 13.765625 7.898438 L 13.761719 7.925781 C 13.761719 7.929688 13.765625 7.945312 13.761719 7.949219 L 13.75 7.964844 L 13.761719 7.988281 C 13.761719 7.992188 13.757812 8 13.753906 8 L 13.738281 8.003906 L 13.699219 8.050781 C 13.695312 8.054688 13.6875 8.054688 13.679688 8.054688 C 13.675781 8.058594 13.671875 8.066406 13.667969 8.066406 L 13.65625 8.070312 L 13.539062 8.21875 L 13.570312 8.253906 C 13.570312 8.257812 13.570312 8.261719 13.570312 8.265625 L 13.546875 8.292969 L 13.558594 8.382812 C 13.558594 8.386719 13.558594 8.386719 13.558594 8.390625 L 13.535156 8.417969 L 13.53125 8.464844 C 13.53125 8.464844 13.53125 8.46875 13.53125 8.46875 L 13.507812 8.496094 C 13.507812 8.503906 13.511719 8.515625 13.507812 8.519531 L 13.460938 8.582031 C 13.457031 8.585938 13.445312 8.585938 13.441406 8.585938 L 13.320312 8.742188 C 13.316406 8.746094 13.296875 8.75 13.292969 8.746094 L 13.175781 8.65625 L 13.117188 8.597656 L 12.945312 8.816406 C 12.941406 8.824219 12.9375 8.820312 12.929688 8.816406 L 12.914062 8.84375 C 12.910156 8.84375 12.90625 8.847656 12.902344 8.847656 L 12.878906 8.839844 L 12.757812 8.894531 L 12.734375 8.921875 C 12.734375 8.925781 12.734375 8.925781 12.730469 8.925781 L 12.695312 8.929688 L 12.605469 9.050781 L 12.601562 9.097656 L 12.59375 9.125 L 12.609375 9.167969 C 12.613281 9.167969 12.609375 9.171875 12.609375 9.175781 L 12.539062 9.265625 C 12.53125 9.273438 12.527344 9.269531 12.519531 9.265625 C 12.515625 9.269531 12.511719 9.277344 12.503906 9.273438 L 12.492188 9.261719 L 12.402344 9.378906 C 12.398438 9.382812 12.386719 9.382812 12.382812 9.382812 L 12.359375 9.414062 C 12.355469 9.417969 12.34375 9.417969 12.339844 9.417969 L 12.308594 9.457031 C 12.304688 9.460938 12.292969 9.460938 12.285156 9.460938 L 12.15625 9.632812 L 12.136719 9.902344 L 12.320312 10.382812 L 12.21875 10.5 L 12.332031 10.816406 L 12.75 11.03125 L 12.769531 10.957031 L 12.9375 11.023438 L 12.890625 11.148438 L 13.230469 11.316406 L 13.453125 11.738281 L 13.835938 11.855469 L 13.796875 12.183594 L 13.484375 12.3125 L 13.40625 12.59375 L 13.324219 12.757812 L 13.597656 13.335938 L 13.585938 13.507812 C 13.585938 13.507812 13.71875 13.578125 13.734375 13.582031 C 13.75 13.585938 13.996094 13.878906 13.996094 13.878906 L 13.789062 14.757812 L 13.886719 14.8125 L 13.71875 15.199219 L 13.839844 15.480469 L 13.710938 15.875 L 13.847656 16.34375 L 14.089844 16.679688 L 14.390625 16.753906 L 14.445312 16.664062 L 14.265625 16.421875 L 14.300781 16.332031 L 14.367188 16.226562 L 14.402344 16.113281 L 14.253906 16.074219 L 14.199219 15.957031 L 14.355469 15.867188 L 14.394531 15.777344 L 14.265625 15.707031 L 14.292969 15.621094 L 14.5 15.640625 L 14.835938 15.5625 L 14.984375 15.398438 L 15.398438 15.0625 L 15.402344 14.726562 L 15.539062 14.578125 L 15.828125 14.65625 L 16.0625 14.546875 L 16.273438 13.945312 L 16.558594 13.714844 L 16.640625 13.542969 L 16.457031 13.433594 L 16.375 13.1875 L 15.925781 13.078125 L 15.601562 12.859375 L 15.644531 12.601562 L 15.578125 12.367188 L 15.253906 12.285156 L 15.136719 11.949219 L 14.992188 11.828125 L 14.960938 11.917969 L 14.65625 11.863281 L 14.582031 11.683594 L 14.285156 11.546875 L 13.953125 11.789062 L 13.5625 11.625 L 13.644531 11.15625 L 13.355469 11.035156 L 13.53125 10.835938 L 13.527344 10.699219 L 13.074219 10.871094 L 12.835938 10.785156 L 12.792969 10.570312 L 12.894531 10.386719 L 13.089844 10.167969 L 13.4375 10.078125 L 14.042969 10.21875 L 13.996094 10.402344 L 14.1875 10.554688 L 14.246094 10.234375 L 14.4375 10.113281 L 14.804688 9.980469 L 14.859375 9.839844 L 15.25 9.582031 L 15.628906 9.476562 L 15.605469 9.445312 L 15.882812 9.285156 L 15.960938 9.324219 L 15.984375 9.378906 L 16.117188 9.300781 L 15.9375 9.214844 L 15.960938 9.121094 L 16.019531 9.089844 L 16.132812 9.117188 L 16.179688 9.148438 L 16.199219 9.25 L 16.257812 9.253906 L 16.257812 9.246094 L 16.433594 9.265625 L 16.476562 9.195312 L 16.558594 9.238281 L 16.539062 9.320312 L 16.441406 9.359375 L 16.445312 9.359375 L 16.433594 9.453125 L 16.695312 9.609375 L 16.695312 9.613281 L 16.765625 9.621094 L 16.796875 9.5 L 16.664062 9.394531 L 16.691406 9.269531 L 16.800781 9.261719 L 16.847656 9.085938 L 16.683594 8.917969 L 16.742188 8.613281 L 16.445312 8.683594 L 16.347656 8.660156 L 16.425781 8.4375 L 16.082031 8.265625 L 15.90625 8.34375 L 15.824219 8.695312 L 15.53125 8.71875 L 15.371094 8.917969 L 15.246094 8.910156 L 15.316406 8.621094 L 15.070312 8.527344 L 14.964844 8.414062 L 14.957031 8.210938 L 15.472656 8.050781 L 15.714844 8.035156 L 15.699219 8.191406 L 15.824219 8.210938 L 15.851562 8.140625 L 15.988281 8.152344 L 15.996094 8.125 L 15.945312 8.089844 L 15.953125 8.003906 L 16.117188 8.03125 L 16.242188 7.945312 L 16.277344 7.921875 L 16.625 7.957031 L 16.742188 8.121094 L 16.304688 8.238281 L 16.769531 8.46875 L 16.875 8.316406 L 17.089844 8.367188 L 17.203125 8.242188 L 17.058594 8.167969 L 17.101562 7.984375 L 16.671875 7.660156 L 16.332031 7.621094 L 16.121094 7.675781 L 16.078125 7.917969 L 15.890625 7.84375 L 15.890625 7.703125 L 16.121094 7.574219 L 15.785156 7.480469 L 15.679688 7.488281 L 15.609375 7.59375 L 15.730469 7.640625 L 15.675781 7.765625 L 15.457031 7.726562 L 15.402344 7.804688 L 15.085938 7.742188 C 15.085938 7.742188 15.121094 7.5625 15.109375 7.558594 C 15.097656 7.554688 15.355469 7.609375 15.355469 7.609375 L 15.585938 7.46875 L 15.496094 7.394531 L 15.328125 7.496094 L 15.105469 7.429688 L 15.015625 7.210938 L 14.726562 7.144531 L 14.371094 7.300781 L 14.648438 7.363281 L 14.65625 7.449219 L 14.566406 7.503906 L 14.871094 7.582031 L 14.890625 7.703125 L 14.550781 7.609375 L 14.550781 7.519531 L 14.347656 7.425781 L 14.246094 7.335938 L 14.097656 7.300781 L 14.09375 7.300781 C 14.09375 7.304688 14.09375 7.304688 14.089844 7.304688 C 14.085938 7.308594 14.078125 7.308594 14.074219 7.308594 C 14.074219 7.308594 14.066406 7.308594 14.066406 7.308594 C 14.0625 7.308594 14.058594 7.308594 14.054688 7.3125 C 14.054688 7.316406 14.050781 7.316406 14.050781 7.316406 L 14.042969 7.320312 C 14.039062 7.328125 14.039062 7.332031 14.027344 7.335938 Z M 14.027344 7.335938 "/>
<path style=" stroke:none;fill-rule:evenodd;fill:rgb(80.784315%,80.392158%,80.000001%);fill-opacity:1;" d="M 14 7.277344 C 13.242188 7.582031 12.617188 8.027344 12.121094 8.566406 C 11.90625 8.796875 11.929688 8.742188 11.804688 9.039062 L 11.714844 9.3125 L 11.902344 9.464844 L 11.808594 9.867188 L 11.929688 10.265625 L 12.089844 10.328125 L 12.136719 10.214844 L 12.015625 9.867188 L 12.046875 9.5625 L 12.160156 9.589844 L 12.160156 9.601562 L 12.273438 9.449219 C 12.277344 9.445312 12.292969 9.445312 12.296875 9.445312 L 12.328125 9.40625 C 12.328125 9.402344 12.34375 9.402344 12.347656 9.402344 L 12.367188 9.371094 C 12.371094 9.367188 12.386719 9.367188 12.390625 9.367188 L 12.484375 9.246094 C 12.488281 9.242188 12.492188 9.238281 12.496094 9.242188 L 12.507812 9.253906 C 12.515625 9.242188 12.519531 9.246094 12.527344 9.25 L 12.59375 9.167969 C 12.589844 9.160156 12.578125 9.128906 12.578125 9.121094 L 12.582031 9.09375 L 12.585938 9.046875 C 12.585938 9.046875 12.585938 9.042969 12.589844 9.042969 L 12.683594 8.917969 C 12.6875 8.914062 12.6875 8.914062 12.691406 8.914062 L 12.722656 8.910156 C 12.726562 8.902344 12.746094 8.878906 12.75 8.878906 L 12.855469 8.824219 C 12.855469 8.824219 12.875 8.820312 12.878906 8.824219 L 12.902344 8.828125 L 12.925781 8.800781 C 12.925781 8.792969 12.933594 8.796875 12.9375 8.800781 L 13.105469 8.582031 L 13.074219 8.527344 C 13.070312 8.523438 13.070312 8.519531 13.074219 8.515625 L 13.089844 8.496094 C 13.09375 8.492188 13.097656 8.492188 13.101562 8.492188 L 13.144531 8.527344 C 13.148438 8.53125 13.148438 8.542969 13.148438 8.550781 C 13.148438 8.554688 13.148438 8.554688 13.148438 8.558594 L 13.128906 8.582031 L 13.300781 8.730469 L 13.308594 8.730469 L 13.429688 8.574219 C 13.429688 8.570312 13.445312 8.570312 13.449219 8.570312 L 13.492188 8.511719 C 13.492188 8.503906 13.488281 8.492188 13.492188 8.492188 L 13.515625 8.460938 L 13.519531 8.414062 C 13.519531 8.414062 13.519531 8.410156 13.519531 8.410156 L 13.542969 8.382812 L 13.53125 8.292969 C 13.53125 8.289062 13.53125 8.289062 13.53125 8.289062 L 13.550781 8.261719 L 13.523438 8.222656 C 13.519531 8.21875 13.519531 8.214844 13.523438 8.210938 L 13.644531 8.054688 C 13.644531 8.050781 13.65625 8.050781 13.664062 8.050781 C 13.664062 8.046875 13.667969 8.042969 13.675781 8.042969 L 13.691406 8.039062 L 13.726562 7.988281 C 13.730469 7.984375 13.734375 7.984375 13.738281 7.984375 L 13.730469 7.96875 C 13.730469 7.964844 13.730469 7.964844 13.730469 7.960938 L 13.746094 7.941406 C 13.746094 7.9375 13.742188 7.925781 13.746094 7.925781 C 13.746094 7.917969 13.75 7.894531 13.753906 7.890625 L 13.855469 7.757812 C 13.863281 7.75 13.871094 7.753906 13.875 7.757812 L 13.894531 7.75 C 13.898438 7.746094 13.902344 7.738281 13.90625 7.738281 L 13.941406 7.730469 C 13.949219 7.730469 13.964844 7.71875 13.96875 7.71875 L 14.003906 7.714844 L 14.050781 7.652344 C 14.050781 7.648438 14.046875 7.644531 14.046875 7.640625 L 14.035156 7.570312 C 14.035156 7.5625 14.023438 7.546875 14.023438 7.542969 L 14.019531 7.503906 L 14.019531 7.4375 L 14.015625 7.402344 C 14.011719 7.398438 14.015625 7.398438 14.015625 7.398438 L 14.027344 7.378906 L 14.003906 7.332031 C 14.003906 7.320312 14.011719 7.316406 14.015625 7.320312 C 14.019531 7.320312 14.019531 7.320312 14.023438 7.320312 C 14.027344 7.316406 14.027344 7.3125 14.03125 7.308594 C 14.039062 7.304688 14.042969 7.304688 14.042969 7.300781 C 14.050781 7.296875 14.050781 7.292969 14.058594 7.292969 Z M 14 7.277344 "/>
<path style=" stroke:none;fill-rule:evenodd;fill:rgb(99.607843%,99.607843%,99.607843%);fill-opacity:1;" d="M 15.808594 11.910156 L 15.871094 11.847656 L 16.046875 11.855469 L 16.042969 12.070312 L 16.097656 12.234375 L 16.140625 12.316406 L 16.238281 12.382812 L 16.109375 12.484375 L 15.90625 12.453125 L 15.757812 12.421875 L 15.816406 12.246094 L 15.945312 12.25 L 15.957031 12.164062 L 15.855469 12.066406 L 15.789062 11.992188 Z M 15.808594 11.910156 "/>
<path style=" stroke:none;fill-rule:evenodd;fill:rgb(99.607843%,99.607843%,99.607843%);fill-opacity:1;" d="M 15.824219 12.167969 L 15.964844 12.027344 L 16.113281 12.027344 L 16.199219 12.09375 L 16.164062 12.203125 L 15.917969 12.304688 L 15.800781 12.277344 Z M 15.824219 12.167969 "/>
<path style=" stroke:none;fill-rule:evenodd;fill:rgb(99.607843%,99.607843%,99.607843%);fill-opacity:1;" d="M 15.847656 12.117188 L 15.996094 12.152344 L 16.042969 12.082031 L 16.105469 12.089844 L 16.167969 12.121094 L 16.125 12.171875 L 16.050781 12.164062 L 16.019531 12.230469 L 15.953125 12.25 L 15.863281 12.238281 C 15.863281 12.214844 15.867188 12.203125 15.867188 12.203125 L 15.832031 12.191406 Z M 15.847656 12.117188 "/>
<path style=" stroke:none;fill-rule:evenodd;fill:rgb(99.607843%,99.607843%,99.607843%);fill-opacity:1;" d="M 15.929688 12.21875 L 15.953125 12.144531 L 16.015625 12.097656 L 16.066406 12.164062 L 16.039062 12.234375 Z M 15.929688 12.21875 "/>
<path style=" stroke:none;fill-rule:evenodd;fill:rgb(99.607843%,99.607843%,99.607843%);fill-opacity:1;" d="M 15.953125 12.113281 L 15.949219 12.175781 L 16.019531 12.226562 L 16.046875 12.101562 Z M 15.953125 12.113281 "/>
<path style=" stroke:none;fill-rule:evenodd;fill:rgb(31.37255%,56.862748%,80.392158%);fill-opacity:1;" d="M 21.390625 20.574219 C 21.601562 20.453125 21.867188 20.527344 21.984375 20.738281 C 22.105469 20.949219 22.03125 21.214844 21.820312 21.335938 L 20.507812 22.082031 C 20.300781 22.203125 20.03125 22.128906 19.914062 21.917969 C 19.796875 21.707031 19.867188 21.441406 20.078125 21.324219 Z M 21.390625 20.574219 "/>
<path style=" stroke:none;fill-rule:evenodd;fill:rgb(31.37255%,56.862748%,80.392158%);fill-opacity:1;" d="M 10.335938 21.335938 C 10.125 21.214844 10.050781 20.949219 10.167969 20.738281 C 10.289062 20.527344 10.554688 20.453125 10.765625 20.574219 L 12.078125 21.324219 C 12.285156 21.441406 12.359375 21.707031 12.242188 21.917969 C 12.121094 22.128906 11.855469 22.203125 11.648438 22.082031 Z M 10.335938 21.335938 "/>
<path style=" stroke:none;fill-rule:evenodd;fill:rgb(99.607843%,99.607843%,99.607843%);fill-opacity:1;" d="M 22.414062 17.550781 C 23.453125 17.109375 24.480469 17.085938 25.5625 17.550781 L 25.574219 21.449219 L 22.390625 21.449219 Z M 22.414062 17.550781 "/>
<path style=" stroke:none;fill-rule:evenodd;fill:rgb(83.529413%,20.392157%,22.352941%);fill-opacity:1;" d="M 23.652344 18.5625 L 24.28125 18.5625 L 24.644531 20.792969 L 23.996094 21.625 L 23.367188 20.792969 Z M 23.652344 18.5625 "/>
<path style=" stroke:none;fill-rule:evenodd;fill:rgb(27.058825%,53.725493%,78.039217%);fill-opacity:1;" d="M 23.984375 18.5625 L 24.28125 18.5625 L 24.644531 20.792969 L 23.996094 21.625 L 23.984375 21.605469 Z M 23.984375 18.5625 "/>
<path style=" stroke:none;fill-rule:evenodd;fill:rgb(21.568628%,48.627451%,74.509805%);fill-opacity:1;" d="M 23.652344 18.5625 L 23.984375 18.5625 L 23.984375 21.605469 L 23.367188 20.792969 Z M 23.652344 18.5625 "/>
<path style=" stroke:none;fill-rule:evenodd;fill:rgb(27.058825%,53.725493%,78.039217%);fill-opacity:1;" d="M 23.972656 17.183594 C 24.375 17.183594 24.703125 17.554688 24.703125 18.011719 C 24.703125 18.464844 24.375 18.703125 23.972656 18.703125 C 23.570312 18.703125 23.242188 18.464844 23.242188 18.011719 C 23.242188 17.554688 23.570312 17.183594 23.972656 17.183594 Z M 23.972656 17.183594 "/>
<path style=" stroke:none;fill-rule:evenodd;fill:rgb(20.784314%,21.176471%,21.176471%);fill-opacity:1;" d="M 25.558594 17.546875 L 25.886719 17.773438 C 26.480469 18.1875 26.792969 18.632812 26.957031 19.136719 C 27.117188 19.621094 27.132812 20.132812 27.132812 20.710938 L 27.132812 20.863281 L 27.011719 20.957031 C 26.140625 21.628906 25.058594 21.96875 23.984375 21.96875 C 22.90625 21.96875 21.828125 21.628906 20.957031 20.957031 L 20.835938 20.859375 L 20.835938 20.707031 C 20.835938 20.121094 20.851562 19.597656 21.019531 19.105469 C 21.195312 18.59375 21.523438 18.140625 22.144531 17.730469 L 22.410156 17.546875 L 23.984375 20.160156 Z M 25.558594 17.546875 "/>
<path style=" stroke:none;fill-rule:evenodd;fill:rgb(19.607843%,19.215687%,19.607843%);fill-opacity:1;" d="M 24.066406 21.964844 C 24.039062 21.964844 24.011719 21.96875 23.984375 21.96875 L 23.984375 20.15625 L 25.59375 17.5625 L 25.546875 19.238281 L 24.882812 19.449219 L 25.117188 20.082031 C 24.820312 20.117188 24.285156 21.339844 24.066406 21.964844 Z M 24.066406 21.964844 "/>
<path style=" stroke:none;fill-rule:evenodd;fill:rgb(19.607843%,19.215687%,19.607843%);fill-opacity:1;" d="M 23.90625 21.964844 C 23.929688 21.964844 23.957031 21.96875 23.984375 21.96875 L 23.984375 20.15625 L 22.378906 17.5625 L 22.421875 19.238281 L 23.085938 19.449219 L 22.851562 20.082031 C 23.148438 20.117188 23.683594 21.339844 23.90625 21.964844 Z M 23.90625 21.964844 "/>
<path style=" stroke:none;fill-rule:evenodd;fill:rgb(25.882354%,25.882354%,25.882354%);fill-opacity:1;" d="M 24.066406 21.964844 C 24.035156 21.964844 24.011719 21.96875 23.984375 21.96875 L 23.984375 20.15625 L 25.546875 17.5625 L 25.496094 19.207031 L 24.851562 19.417969 L 25.082031 20.046875 C 24.792969 20.082031 24.277344 21.339844 24.066406 21.964844 Z M 24.066406 21.964844 "/>
<path style=" stroke:none;fill-rule:evenodd;fill:rgb(25.882354%,25.882354%,25.882354%);fill-opacity:1;" d="M 23.90625 21.964844 C 23.933594 21.964844 23.957031 21.96875 23.984375 21.96875 L 23.984375 20.15625 L 22.421875 17.5625 L 22.472656 19.207031 L 23.117188 19.417969 L 22.886719 20.046875 C 23.179688 20.082031 23.691406 21.339844 23.90625 21.964844 Z M 23.90625 21.964844 "/>
<path style=" stroke:none;fill-rule:evenodd;fill:rgb(89.803922%,90.196079%,89.803922%);fill-opacity:1;" d="M 25.222656 17.363281 C 25.367188 17.429688 25.546875 17.527344 25.472656 17.667969 C 25.242188 18.117188 25 18.527344 24.644531 18.921875 L 24 18.210938 Z M 25.222656 17.363281 "/>
<path style=" stroke:none;fill-rule:evenodd;fill:rgb(89.803922%,90.196079%,89.803922%);fill-opacity:1;" d="M 22.773438 17.363281 C 22.632812 17.429688 22.453125 17.527344 22.527344 17.667969 C 22.757812 18.117188 23 18.527344 23.351562 18.921875 L 24 18.210938 Z M 22.773438 17.363281 "/>
<path style=" stroke:none;fill-rule:evenodd;fill:rgb(97.647059%,82.352942%,66.666669%);fill-opacity:1;" d="M 23.984375 13.660156 C 24.546875 13.660156 25.058594 13.890625 25.429688 14.265625 C 25.796875 14.640625 26.027344 15.15625 26.027344 15.726562 L 26.023438 15.726562 L 26.023438 15.742188 C 26.019531 16.378906 25.777344 16.988281 25.414062 17.433594 C 25.03125 17.910156 24.5 18.222656 23.964844 18.222656 L 23.964844 18.21875 L 23.957031 18.21875 C 23.410156 18.214844 22.886719 17.894531 22.511719 17.40625 C 22.167969 16.957031 21.941406 16.351562 21.941406 15.726562 C 21.941406 15.15625 22.167969 14.640625 22.535156 14.265625 C 22.90625 13.890625 23.417969 13.660156 23.984375 13.660156 Z M 23.984375 13.660156 "/>
<path style=" stroke:none;fill-rule:evenodd;fill:rgb(91.764706%,74.509805%,57.254905%);fill-opacity:1;" d="M 23.984375 18.222656 C 23.976562 18.222656 23.96875 18.222656 23.964844 18.222656 L 23.964844 18.21875 L 23.957031 18.21875 C 23.410156 18.214844 22.886719 17.894531 22.511719 17.40625 C 22.167969 16.957031 21.941406 16.351562 21.941406 15.726562 C 21.941406 15.15625 22.167969 14.640625 22.535156 14.265625 C 22.90625 13.890625 23.417969 13.660156 23.984375 13.660156 Z M 23.984375 18.222656 "/>
<path style=" stroke:none;fill-rule:evenodd;fill:rgb(91.764706%,76.862746%,61.960787%);fill-opacity:1;" d="M 23.984375 13.660156 L 23.992188 13.660156 C 24.554688 13.660156 25.0625 13.894531 25.429688 14.265625 C 25.796875 14.640625 26.027344 15.15625 26.027344 15.726562 L 26.023438 15.726562 L 26.023438 15.742188 C 26.019531 16.378906 25.777344 16.988281 25.414062 17.433594 C 25.035156 17.902344 24.515625 18.210938 23.988281 18.222656 L 23.984375 18.222656 Z M 23.984375 13.660156 "/>
<path style=" stroke:none;fill-rule:evenodd;fill:rgb(20.784314%,21.176471%,21.176471%);fill-opacity:1;" d="M 25.457031 14.214844 C 26.039062 14.800781 26.109375 15.792969 25.914062 16.5625 C 25.886719 15.699219 25.5 15.234375 25.019531 15.089844 C 24.691406 14.992188 24.335938 15.15625 23.957031 15.09375 C 23.070312 14.957031 22.035156 14.863281 22.074219 16.5625 C 21.9375 16.230469 21.898438 16.078125 21.898438 15.703125 C 21.898438 15.121094 22.074219 14.554688 22.449219 14.171875 C 23.164062 13.449219 24.636719 13.339844 25.457031 14.214844 Z M 25.457031 14.214844 "/>
<path style=" stroke:none;fill-rule:evenodd;fill:rgb(99.607843%,99.607843%,99.607843%);fill-opacity:1;" d="M 6.445312 17.550781 C 7.488281 17.109375 8.511719 17.085938 9.59375 17.550781 L 9.609375 21.449219 L 6.425781 21.449219 Z M 6.445312 17.550781 "/>
<path style=" stroke:none;fill-rule:evenodd;fill:rgb(83.529413%,20.392157%,22.352941%);fill-opacity:1;" d="M 7.6875 18.5625 L 8.316406 18.5625 L 8.675781 20.792969 L 8.03125 21.625 L 7.402344 20.792969 Z M 7.6875 18.5625 "/>
<path style=" stroke:none;fill-rule:evenodd;fill:rgb(55.686277%,76.47059%,32.156864%);fill-opacity:1;" d="M 8.015625 18.5625 L 8.316406 18.5625 L 8.675781 20.792969 L 8.03125 21.625 L 8.019531 21.605469 L 8.015625 21.605469 Z M 8.015625 18.5625 "/>
<path style=" stroke:none;fill-rule:evenodd;fill:rgb(48.235294%,69.803923%,30.19608%);fill-opacity:1;" d="M 7.6875 18.5625 L 8.015625 18.5625 L 8.015625 21.605469 L 7.402344 20.792969 Z M 7.6875 18.5625 "/>
<path style=" stroke:none;fill-rule:evenodd;fill:rgb(63.137257%,80.784315%,40.392157%);fill-opacity:1;" d="M 8.007812 17.183594 C 8.410156 17.183594 8.738281 17.554688 8.738281 18.011719 C 8.738281 18.464844 8.410156 18.703125 8.007812 18.703125 C 7.605469 18.703125 7.277344 18.464844 7.277344 18.011719 C 7.277344 17.554688 7.605469 17.183594 8.007812 17.183594 Z M 8.007812 17.183594 "/>
<path style=" stroke:none;fill-rule:evenodd;fill:rgb(20.784314%,21.176471%,21.176471%);fill-opacity:1;" d="M 9.589844 17.546875 L 9.921875 17.773438 C 10.515625 18.1875 10.828125 18.632812 10.992188 19.136719 C 11.152344 19.621094 11.164062 20.132812 11.164062 20.710938 L 11.164062 20.863281 L 11.042969 20.957031 C 10.171875 21.628906 9.09375 21.96875 8.015625 21.96875 C 6.941406 21.96875 5.863281 21.628906 4.992188 20.957031 L 4.867188 20.859375 L 4.867188 20.707031 C 4.867188 20.121094 4.886719 19.597656 5.054688 19.105469 C 5.230469 18.59375 5.558594 18.140625 6.175781 17.730469 L 6.441406 17.546875 L 8.015625 20.160156 Z M 9.589844 17.546875 "/>
<path style=" stroke:none;fill-rule:evenodd;fill:rgb(19.607843%,19.215687%,19.607843%);fill-opacity:1;" d="M 8.101562 21.964844 C 8.074219 21.964844 8.046875 21.96875 8.019531 21.96875 L 8.019531 20.15625 L 9.625 17.5625 L 9.582031 19.238281 L 8.917969 19.449219 L 9.152344 20.082031 C 8.851562 20.117188 8.320312 21.339844 8.101562 21.964844 Z M 8.101562 21.964844 "/>
<path style=" stroke:none;fill-rule:evenodd;fill:rgb(19.607843%,19.215687%,19.607843%);fill-opacity:1;" d="M 7.9375 21.964844 C 7.964844 21.964844 7.992188 21.96875 8.019531 21.96875 L 8.019531 20.15625 L 6.414062 17.5625 L 6.457031 19.238281 L 7.121094 19.449219 L 6.886719 20.082031 C 7.183594 20.117188 7.71875 21.339844 7.9375 21.964844 Z M 7.9375 21.964844 "/>
<path style=" stroke:none;fill-rule:evenodd;fill:rgb(25.882354%,25.882354%,25.882354%);fill-opacity:1;" d="M 8.097656 21.964844 C 8.070312 21.964844 8.046875 21.96875 8.019531 21.96875 L 8.019531 20.15625 L 9.582031 17.5625 L 9.53125 19.207031 L 8.886719 19.417969 L 9.117188 20.046875 C 8.824219 20.082031 8.3125 21.339844 8.097656 21.964844 Z M 8.097656 21.964844 "/>
<path style=" stroke:none;fill-rule:evenodd;fill:rgb(25.882354%,25.882354%,25.882354%);fill-opacity:1;" d="M 7.941406 21.964844 C 7.96875 21.964844 7.992188 21.96875 8.019531 21.96875 L 8.019531 20.15625 L 6.457031 17.5625 L 6.507812 19.207031 L 7.152344 19.417969 L 6.921875 20.046875 C 7.210938 20.082031 7.726562 21.339844 7.941406 21.964844 Z M 7.941406 21.964844 "/>
<path style=" stroke:none;fill-rule:evenodd;fill:rgb(89.803922%,90.196079%,89.803922%);fill-opacity:1;" d="M 9.257812 17.363281 C 9.402344 17.429688 9.582031 17.527344 9.507812 17.667969 C 9.277344 18.117188 9.035156 18.527344 8.679688 18.921875 L 8.035156 18.210938 Z M 9.257812 17.363281 "/>
<path style=" stroke:none;fill-rule:evenodd;fill:rgb(89.803922%,90.196079%,89.803922%);fill-opacity:1;" d="M 6.808594 17.363281 C 6.664062 17.429688 6.484375 17.527344 6.558594 17.667969 C 6.792969 18.117188 7.035156 18.527344 7.386719 18.921875 L 8.035156 18.210938 Z M 6.808594 17.363281 "/>
<path style=" stroke:none;fill-rule:evenodd;fill:rgb(97.647059%,82.352942%,66.666669%);fill-opacity:1;" d="M 8.015625 13.660156 C 8.582031 13.660156 9.09375 13.890625 9.464844 14.265625 C 9.832031 14.640625 10.058594 15.15625 10.058594 15.726562 L 10.058594 15.742188 C 10.054688 16.378906 9.8125 16.988281 9.449219 17.433594 C 9.0625 17.910156 8.535156 18.222656 8 18.222656 L 8 18.21875 L 7.992188 18.21875 C 7.441406 18.214844 6.921875 17.894531 6.546875 17.40625 C 6.203125 16.957031 5.972656 16.351562 5.972656 15.726562 C 5.972656 15.15625 6.203125 14.640625 6.570312 14.265625 C 6.941406 13.890625 7.453125 13.660156 8.015625 13.660156 Z M 8.015625 13.660156 "/>
<path style=" stroke:none;fill-rule:evenodd;fill:rgb(91.764706%,74.509805%,57.254905%);fill-opacity:1;" d="M 8.015625 18.222656 C 8.007812 18.222656 8.003906 18.222656 8 18.222656 L 8 18.21875 L 7.992188 18.21875 C 7.441406 18.214844 6.921875 17.894531 6.546875 17.40625 C 6.203125 16.957031 5.972656 16.351562 5.972656 15.726562 C 5.972656 15.15625 6.203125 14.640625 6.570312 14.265625 C 6.941406 13.890625 7.453125 13.660156 8.015625 13.660156 Z M 8.015625 18.222656 "/>
<path style=" stroke:none;fill-rule:evenodd;fill:rgb(91.764706%,76.862746%,61.960787%);fill-opacity:1;" d="M 8.015625 13.660156 L 8.027344 13.660156 C 8.585938 13.660156 9.09375 13.894531 9.464844 14.265625 C 9.832031 14.640625 10.058594 15.15625 10.058594 15.726562 L 10.058594 15.742188 C 10.054688 16.378906 9.8125 16.988281 9.449219 17.433594 C 9.070312 17.902344 8.550781 18.210938 8.019531 18.222656 L 8.015625 18.222656 Z M 8.015625 13.660156 "/>
<path style=" stroke:none;fill-rule:evenodd;fill:rgb(20.784314%,21.176471%,21.176471%);fill-opacity:1;" d="M 9.492188 14.214844 C 10.074219 14.800781 10.144531 15.792969 9.945312 16.5625 C 9.921875 15.699219 9.535156 15.234375 9.050781 15.089844 C 8.726562 14.992188 8.367188 15.15625 7.992188 15.09375 C 7.105469 14.957031 6.070312 14.863281 6.109375 16.5625 C 5.96875 16.230469 5.929688 16.078125 5.929688 15.703125 C 5.929688 15.121094 6.105469 14.554688 6.484375 14.171875 C 7.199219 13.449219 8.671875 13.339844 9.492188 14.214844 Z M 9.492188 14.214844 "/>
<path style=" stroke:none;fill-rule:evenodd;fill:rgb(99.607843%,99.607843%,99.607843%);fill-opacity:1;" d="M 13.894531 18.953125 C 15.339844 18.339844 16.765625 18.308594 18.269531 18.953125 L 18.285156 24.367188 L 13.867188 24.367188 Z M 13.894531 18.953125 "/>
<path style=" stroke:none;fill-rule:evenodd;fill:rgb(83.529413%,20.392157%,22.352941%);fill-opacity:1;" d="M 15.621094 20.355469 L 16.496094 20.359375 L 16.996094 23.457031 L 16.097656 24.609375 L 15.222656 23.457031 Z M 15.621094 20.355469 "/>
<path style=" stroke:none;fill-rule:evenodd;fill:rgb(87.843138%,25.490198%,24.705882%);fill-opacity:1;" d="M 16.078125 20.359375 L 16.496094 20.359375 L 16.996094 23.457031 L 16.097656 24.609375 L 16.078125 24.585938 Z M 16.078125 20.359375 "/>
<path style=" stroke:none;fill-rule:evenodd;fill:rgb(83.529413%,20.392157%,22.352941%);fill-opacity:1;" d="M 15.621094 20.355469 L 16.078125 20.359375 L 16.078125 24.582031 L 15.222656 23.457031 Z M 15.621094 20.355469 "/>
<path style=" stroke:none;fill-rule:evenodd;fill:rgb(93.333334%,24.705882%,24.313726%);fill-opacity:1;" d="M 16.066406 18.445312 C 16.625 18.445312 17.078125 18.957031 17.078125 19.589844 C 17.078125 20.222656 16.625 20.554688 16.066406 20.554688 C 15.503906 20.554688 15.050781 20.222656 15.050781 19.589844 C 15.050781 18.957031 15.503906 18.445312 16.066406 18.445312 Z M 16.066406 18.445312 "/>
<path style=" stroke:none;fill-rule:evenodd;fill:rgb(20.784314%,21.176471%,21.176471%);fill-opacity:1;" d="M 18.265625 18.949219 L 18.722656 19.261719 C 19.546875 19.835938 19.980469 20.457031 20.210938 21.15625 C 20.429688 21.828125 20.449219 22.539062 20.449219 23.339844 L 20.449219 23.554688 L 20.28125 23.679688 C 19.070312 24.617188 17.574219 25.085938 16.078125 25.085938 C 14.582031 25.085938 13.085938 24.617188 11.875 23.679688 L 11.703125 23.550781 L 11.703125 23.339844 C 11.703125 22.523438 11.726562 21.796875 11.964844 21.109375 C 12.207031 20.398438 12.660156 19.769531 13.519531 19.203125 L 13.890625 18.949219 L 16.078125 22.574219 Z M 18.265625 18.949219 "/>
<path style=" stroke:none;fill-rule:evenodd;fill:rgb(19.607843%,19.215687%,19.607843%);fill-opacity:1;" d="M 16.191406 25.085938 C 16.15625 25.085938 16.117188 25.085938 16.078125 25.085938 L 16.082031 22.570312 L 18.3125 18.96875 L 18.25 21.296875 L 17.328125 21.589844 L 17.65625 22.464844 C 17.238281 22.511719 16.5 24.214844 16.191406 25.085938 Z M 16.191406 25.085938 "/>
<path style=" stroke:none;fill-rule:evenodd;fill:rgb(19.607843%,19.215687%,19.607843%);fill-opacity:1;" d="M 15.96875 25.085938 C 16.003906 25.085938 16.042969 25.085938 16.078125 25.085938 L 16.078125 22.570312 L 13.847656 18.96875 L 13.914062 21.296875 L 14.835938 21.589844 L 14.503906 22.464844 C 14.921875 22.511719 15.660156 24.214844 15.96875 25.085938 Z M 15.96875 25.085938 "/>
<path style=" stroke:none;fill-rule:evenodd;fill:rgb(25.882354%,25.882354%,25.882354%);fill-opacity:1;" d="M 16.191406 25.085938 C 16.15625 25.085938 16.117188 25.085938 16.078125 25.085938 L 16.082031 22.570312 L 18.253906 18.96875 L 18.183594 21.253906 L 17.285156 21.546875 L 17.605469 22.421875 C 17.199219 22.46875 16.488281 24.214844 16.191406 25.085938 Z M 16.191406 25.085938 "/>
<path style=" stroke:none;fill-rule:evenodd;fill:rgb(25.882354%,25.882354%,25.882354%);fill-opacity:1;" d="M 15.96875 25.085938 C 16.007812 25.085938 16.042969 25.085938 16.078125 25.085938 L 16.078125 22.570312 L 13.910156 18.96875 L 13.980469 21.253906 L 14.875 21.546875 L 14.554688 22.421875 C 14.960938 22.46875 15.671875 24.214844 15.96875 25.085938 Z M 15.96875 25.085938 "/>
<path style=" stroke:none;fill-rule:evenodd;fill:rgb(89.803922%,90.196079%,89.803922%);fill-opacity:1;" d="M 17.804688 18.695312 C 18 18.785156 18.25 18.921875 18.148438 19.117188 C 17.824219 19.742188 17.488281 20.3125 17 20.855469 L 16.101562 19.871094 Z M 17.804688 18.695312 "/>
<path style=" stroke:none;fill-rule:evenodd;fill:rgb(89.803922%,90.196079%,89.803922%);fill-opacity:1;" d="M 14.398438 18.695312 C 14.199219 18.785156 13.953125 18.921875 14.050781 19.117188 C 14.375 19.742188 14.710938 20.3125 15.199219 20.855469 L 16.101562 19.871094 Z M 14.398438 18.695312 "/>
<path style=" stroke:none;fill-rule:evenodd;fill:rgb(99.215686%,80.392158%,61.176473%);fill-opacity:1;" d="M 16.078125 13.542969 C 16.859375 13.542969 17.570312 13.867188 18.085938 14.390625 C 18.597656 14.914062 18.914062 15.628906 18.914062 16.417969 L 18.914062 16.4375 C 18.90625 17.324219 18.570312 18.171875 18.066406 18.792969 C 17.53125 19.453125 16.796875 19.882812 16.050781 19.882812 L 16.050781 19.878906 L 16.039062 19.878906 C 15.28125 19.875 14.554688 19.429688 14.039062 18.753906 C 13.554688 18.125 13.238281 17.285156 13.238281 16.417969 C 13.238281 15.628906 13.554688 14.914062 14.070312 14.390625 C 14.582031 13.867188 15.292969 13.542969 16.078125 13.542969 Z M 16.078125 13.542969 "/>
<path style=" stroke:none;fill-rule:evenodd;fill:rgb(99.215686%,80.392158%,61.176473%);fill-opacity:1;" d="M 16.078125 19.882812 C 16.070312 19.882812 16.058594 19.882812 16.050781 19.882812 L 16.050781 19.878906 L 16.039062 19.878906 C 15.28125 19.875 14.554688 19.429688 14.039062 18.753906 C 13.554688 18.125 13.238281 17.285156 13.238281 16.417969 C 13.238281 15.628906 13.554688 14.914062 14.070312 14.390625 C 14.582031 13.867188 15.292969 13.542969 16.078125 13.542969 Z M 16.078125 19.882812 "/>
<path style=" stroke:none;fill-rule:evenodd;fill:rgb(99.215686%,83.137256%,65.882355%);fill-opacity:1;" d="M 16.078125 13.542969 L 16.089844 13.542969 C 16.871094 13.546875 17.574219 13.871094 18.085938 14.390625 C 18.597656 14.914062 18.914062 15.628906 18.914062 16.417969 L 18.914062 16.4375 C 18.90625 17.324219 18.570312 18.171875 18.066406 18.792969 C 17.539062 19.445312 16.820312 19.871094 16.082031 19.882812 L 16.078125 19.882812 Z M 16.078125 13.542969 "/>
<path style=" stroke:none;fill-rule:evenodd;fill:rgb(20.784314%,21.176471%,21.176471%);fill-opacity:1;" d="M 18.128906 14.316406 C 18.933594 15.136719 19.101562 16.253906 18.828125 17.324219 C 18.878906 15.265625 15.683594 16.46875 15.128906 14.464844 C 15.117188 16.113281 13.542969 15.339844 13.601562 17.738281 L 13.480469 17.875 C 13.289062 17.414062 13.179688 16.90625 13.179688 16.386719 C 13.179688 15.582031 13.425781 14.792969 13.949219 14.261719 C 14.453125 13.75 14.601562 13.902344 14.875 13.816406 C 14.980469 13.785156 14.976562 13.695312 15.136719 13.597656 C 16.179688 12.960938 17.382812 13.523438 18.128906 14.316406 Z M 18.128906 14.316406 "/>
</g>
</svg>
